<mxfile host="app.diagrams.net" modified="2022-05-31T06:24:57.619Z" agent="5.0 (Macintosh; Intel Mac OS X 10_15_7) AppleWebKit/605.1.15 (KHTML, like Gecko) Version/15.4 Safari/605.1.15" etag="67CJ7DZdiNjr_mUuDHhr" version="18.1.3" type="github">
  <diagram id="axUKhrK0p_ziW7-8h0Oz" name="第 1 页">
    <mxGraphModel dx="1018" dy="689" grid="1" gridSize="10" guides="1" tooltips="1" connect="1" arrows="1" fold="1" page="1" pageScale="1" pageWidth="827" pageHeight="1169" math="0" shadow="0">
      <root>
        <mxCell id="0" />
        <mxCell id="1" parent="0" />
        <mxCell id="WhgtrhslCeg2YoSa1LSP-82" value="" style="rounded=0;whiteSpace=wrap;html=1;" vertex="1" parent="1">
          <mxGeometry x="665" y="622.5" width="300" height="105" as="geometry" />
        </mxCell>
        <mxCell id="WhgtrhslCeg2YoSa1LSP-78" style="edgeStyle=orthogonalEdgeStyle;rounded=0;orthogonalLoop=1;jettySize=auto;html=1;exitX=0.5;exitY=1;exitDx=0;exitDy=0;entryX=0.611;entryY=-0.067;entryDx=0;entryDy=0;entryPerimeter=0;" edge="1" parent="1" source="WhgtrhslCeg2YoSa1LSP-41" target="WhgtrhslCeg2YoSa1LSP-68">
          <mxGeometry relative="1" as="geometry" />
        </mxCell>
        <mxCell id="WhgtrhslCeg2YoSa1LSP-79" style="edgeStyle=orthogonalEdgeStyle;rounded=0;orthogonalLoop=1;jettySize=auto;html=1;exitX=0.25;exitY=1;exitDx=0;exitDy=0;entryX=0.25;entryY=0;entryDx=0;entryDy=0;" edge="1" parent="1" source="WhgtrhslCeg2YoSa1LSP-41" target="WhgtrhslCeg2YoSa1LSP-68">
          <mxGeometry relative="1" as="geometry">
            <Array as="points">
              <mxPoint x="783" y="345" />
              <mxPoint x="783" y="378" />
            </Array>
          </mxGeometry>
        </mxCell>
        <mxCell id="WhgtrhslCeg2YoSa1LSP-80" style="edgeStyle=orthogonalEdgeStyle;rounded=0;orthogonalLoop=1;jettySize=auto;html=1;exitX=0.75;exitY=1;exitDx=0;exitDy=0;entryX=0.9;entryY=-0.067;entryDx=0;entryDy=0;entryPerimeter=0;" edge="1" parent="1" source="WhgtrhslCeg2YoSa1LSP-41" target="WhgtrhslCeg2YoSa1LSP-68">
          <mxGeometry relative="1" as="geometry">
            <Array as="points">
              <mxPoint x="841" y="345" />
            </Array>
          </mxGeometry>
        </mxCell>
        <mxCell id="WhgtrhslCeg2YoSa1LSP-41" value="" style="rounded=0;whiteSpace=wrap;html=1;" vertex="1" parent="1">
          <mxGeometry x="640" y="210" width="350" height="135" as="geometry" />
        </mxCell>
        <mxCell id="WhgtrhslCeg2YoSa1LSP-20" value="" style="edgeStyle=orthogonalEdgeStyle;rounded=0;orthogonalLoop=1;jettySize=auto;html=1;" edge="1" parent="1" source="WhgtrhslCeg2YoSa1LSP-1" target="WhgtrhslCeg2YoSa1LSP-8">
          <mxGeometry relative="1" as="geometry" />
        </mxCell>
        <mxCell id="WhgtrhslCeg2YoSa1LSP-21" style="edgeStyle=orthogonalEdgeStyle;rounded=0;orthogonalLoop=1;jettySize=auto;html=1;exitX=0.25;exitY=1;exitDx=0;exitDy=0;entryX=0.25;entryY=0;entryDx=0;entryDy=0;" edge="1" parent="1" source="WhgtrhslCeg2YoSa1LSP-1" target="WhgtrhslCeg2YoSa1LSP-8">
          <mxGeometry relative="1" as="geometry" />
        </mxCell>
        <mxCell id="WhgtrhslCeg2YoSa1LSP-22" style="edgeStyle=orthogonalEdgeStyle;rounded=0;orthogonalLoop=1;jettySize=auto;html=1;exitX=0.75;exitY=1;exitDx=0;exitDy=0;entryX=0.75;entryY=0;entryDx=0;entryDy=0;" edge="1" parent="1" source="WhgtrhslCeg2YoSa1LSP-1" target="WhgtrhslCeg2YoSa1LSP-8">
          <mxGeometry relative="1" as="geometry" />
        </mxCell>
        <mxCell id="WhgtrhslCeg2YoSa1LSP-1" value="LVS+Nginx" style="rounded=0;whiteSpace=wrap;html=1;" vertex="1" parent="1">
          <mxGeometry x="380" y="60" width="120" height="60" as="geometry" />
        </mxCell>
        <mxCell id="WhgtrhslCeg2YoSa1LSP-2" value="" style="rounded=1;whiteSpace=wrap;html=1;" vertex="1" parent="1">
          <mxGeometry x="90" y="30" width="120" height="60" as="geometry" />
        </mxCell>
        <mxCell id="WhgtrhslCeg2YoSa1LSP-3" value="" style="rounded=1;whiteSpace=wrap;html=1;" vertex="1" parent="1">
          <mxGeometry x="100" y="40" width="120" height="60" as="geometry" />
        </mxCell>
        <mxCell id="WhgtrhslCeg2YoSa1LSP-4" value="" style="rounded=1;whiteSpace=wrap;html=1;" vertex="1" parent="1">
          <mxGeometry x="110" y="50" width="120" height="60" as="geometry" />
        </mxCell>
        <mxCell id="WhgtrhslCeg2YoSa1LSP-6" value="" style="edgeStyle=orthogonalEdgeStyle;rounded=0;orthogonalLoop=1;jettySize=auto;html=1;" edge="1" parent="1" source="WhgtrhslCeg2YoSa1LSP-5" target="WhgtrhslCeg2YoSa1LSP-1">
          <mxGeometry relative="1" as="geometry" />
        </mxCell>
        <mxCell id="WhgtrhslCeg2YoSa1LSP-33" value="push" style="edgeLabel;html=1;align=center;verticalAlign=middle;resizable=0;points=[];" vertex="1" connectable="0" parent="WhgtrhslCeg2YoSa1LSP-6">
          <mxGeometry x="-0.05" y="-1" relative="1" as="geometry">
            <mxPoint as="offset" />
          </mxGeometry>
        </mxCell>
        <mxCell id="WhgtrhslCeg2YoSa1LSP-61" style="edgeStyle=orthogonalEdgeStyle;rounded=0;orthogonalLoop=1;jettySize=auto;html=1;exitX=1;exitY=0.25;exitDx=0;exitDy=0;entryX=0;entryY=0.25;entryDx=0;entryDy=0;" edge="1" parent="1" source="WhgtrhslCeg2YoSa1LSP-5" target="WhgtrhslCeg2YoSa1LSP-1">
          <mxGeometry relative="1" as="geometry" />
        </mxCell>
        <mxCell id="WhgtrhslCeg2YoSa1LSP-62" style="edgeStyle=orthogonalEdgeStyle;rounded=0;orthogonalLoop=1;jettySize=auto;html=1;exitX=1;exitY=0.75;exitDx=0;exitDy=0;entryX=0;entryY=0.75;entryDx=0;entryDy=0;" edge="1" parent="1" source="WhgtrhslCeg2YoSa1LSP-5" target="WhgtrhslCeg2YoSa1LSP-1">
          <mxGeometry relative="1" as="geometry" />
        </mxCell>
        <mxCell id="WhgtrhslCeg2YoSa1LSP-5" value="metric_collector" style="rounded=1;whiteSpace=wrap;html=1;" vertex="1" parent="1">
          <mxGeometry x="120" y="60" width="120" height="60" as="geometry" />
        </mxCell>
        <mxCell id="WhgtrhslCeg2YoSa1LSP-8" value="producer" style="rounded=1;whiteSpace=wrap;html=1;" vertex="1" parent="1">
          <mxGeometry x="380" y="220" width="120" height="60" as="geometry" />
        </mxCell>
        <mxCell id="WhgtrhslCeg2YoSa1LSP-15" value="" style="shape=parallelogram;perimeter=parallelogramPerimeter;whiteSpace=wrap;html=1;fixedSize=1;" vertex="1" parent="1">
          <mxGeometry x="83.20000000000005" y="340" width="120" height="60" as="geometry" />
        </mxCell>
        <mxCell id="WhgtrhslCeg2YoSa1LSP-16" value="" style="shape=parallelogram;perimeter=parallelogramPerimeter;whiteSpace=wrap;html=1;fixedSize=1;" vertex="1" parent="1">
          <mxGeometry x="93.20000000000005" y="350" width="120" height="60" as="geometry" />
        </mxCell>
        <mxCell id="WhgtrhslCeg2YoSa1LSP-17" value="" style="shape=parallelogram;perimeter=parallelogramPerimeter;whiteSpace=wrap;html=1;fixedSize=1;" vertex="1" parent="1">
          <mxGeometry x="103.20000000000005" y="360" width="120" height="60" as="geometry" />
        </mxCell>
        <mxCell id="WhgtrhslCeg2YoSa1LSP-18" value="redis_cluster" style="shape=parallelogram;perimeter=parallelogramPerimeter;whiteSpace=wrap;html=1;fixedSize=1;" vertex="1" parent="1">
          <mxGeometry x="113.20000000000005" y="370" width="120" height="60" as="geometry" />
        </mxCell>
        <mxCell id="WhgtrhslCeg2YoSa1LSP-25" value="producer" style="rounded=1;whiteSpace=wrap;html=1;" vertex="1" parent="1">
          <mxGeometry x="390" y="230" width="120" height="60" as="geometry" />
        </mxCell>
        <mxCell id="WhgtrhslCeg2YoSa1LSP-63" style="edgeStyle=orthogonalEdgeStyle;rounded=0;orthogonalLoop=1;jettySize=auto;html=1;exitX=1;exitY=0.25;exitDx=0;exitDy=0;entryX=-0.006;entryY=0.333;entryDx=0;entryDy=0;entryPerimeter=0;" edge="1" parent="1" source="WhgtrhslCeg2YoSa1LSP-26" target="WhgtrhslCeg2YoSa1LSP-41">
          <mxGeometry relative="1" as="geometry" />
        </mxCell>
        <mxCell id="WhgtrhslCeg2YoSa1LSP-64" style="edgeStyle=orthogonalEdgeStyle;rounded=0;orthogonalLoop=1;jettySize=auto;html=1;exitX=1;exitY=0.75;exitDx=0;exitDy=0;entryX=-0.009;entryY=0.556;entryDx=0;entryDy=0;entryPerimeter=0;" edge="1" parent="1" source="WhgtrhslCeg2YoSa1LSP-26" target="WhgtrhslCeg2YoSa1LSP-41">
          <mxGeometry relative="1" as="geometry" />
        </mxCell>
        <mxCell id="WhgtrhslCeg2YoSa1LSP-65" style="edgeStyle=orthogonalEdgeStyle;rounded=0;orthogonalLoop=1;jettySize=auto;html=1;exitX=1;exitY=0.5;exitDx=0;exitDy=0;entryX=-0.009;entryY=0.444;entryDx=0;entryDy=0;entryPerimeter=0;" edge="1" parent="1" source="WhgtrhslCeg2YoSa1LSP-26" target="WhgtrhslCeg2YoSa1LSP-41">
          <mxGeometry relative="1" as="geometry" />
        </mxCell>
        <mxCell id="WhgtrhslCeg2YoSa1LSP-26" value="producers" style="rounded=1;whiteSpace=wrap;html=1;" vertex="1" parent="1">
          <mxGeometry x="400" y="240" width="120" height="60" as="geometry" />
        </mxCell>
        <mxCell id="WhgtrhslCeg2YoSa1LSP-32" value="" style="shape=flexArrow;endArrow=classic;html=1;rounded=0;entryX=0;entryY=1;entryDx=0;entryDy=0;exitX=1;exitY=0;exitDx=0;exitDy=0;" edge="1" parent="1" source="WhgtrhslCeg2YoSa1LSP-16" target="WhgtrhslCeg2YoSa1LSP-8">
          <mxGeometry width="50" height="50" relative="1" as="geometry">
            <mxPoint x="240" y="500" as="sourcePoint" />
            <mxPoint x="290" y="450" as="targetPoint" />
          </mxGeometry>
        </mxCell>
        <mxCell id="WhgtrhslCeg2YoSa1LSP-34" value="metadata" style="edgeLabel;html=1;align=center;verticalAlign=middle;resizable=0;points=[];" vertex="1" connectable="0" parent="WhgtrhslCeg2YoSa1LSP-32">
          <mxGeometry x="0.0152" y="1" relative="1" as="geometry">
            <mxPoint y="-16" as="offset" />
          </mxGeometry>
        </mxCell>
        <mxCell id="WhgtrhslCeg2YoSa1LSP-36" value="broker" style="shape=cylinder3;whiteSpace=wrap;html=1;boundedLbl=1;backgroundOutline=1;size=15;" vertex="1" parent="1">
          <mxGeometry x="690" y="245" width="60" height="80" as="geometry" />
        </mxCell>
        <mxCell id="WhgtrhslCeg2YoSa1LSP-37" value="broker" style="shape=cylinder3;whiteSpace=wrap;html=1;boundedLbl=1;backgroundOutline=1;size=15;" vertex="1" parent="1">
          <mxGeometry x="780" y="245" width="60" height="80" as="geometry" />
        </mxCell>
        <mxCell id="WhgtrhslCeg2YoSa1LSP-40" value="broker" style="shape=cylinder3;whiteSpace=wrap;html=1;boundedLbl=1;backgroundOutline=1;size=15;" vertex="1" parent="1">
          <mxGeometry x="870" y="245" width="60" height="80" as="geometry" />
        </mxCell>
        <mxCell id="WhgtrhslCeg2YoSa1LSP-42" value="Kafka" style="text;html=1;strokeColor=none;fillColor=none;align=center;verticalAlign=middle;whiteSpace=wrap;rounded=0;" vertex="1" parent="1">
          <mxGeometry x="640" y="215" width="60" height="30" as="geometry" />
        </mxCell>
        <mxCell id="WhgtrhslCeg2YoSa1LSP-50" value="CMDB" style="shape=process;whiteSpace=wrap;html=1;backgroundOutline=1;" vertex="1" parent="1">
          <mxGeometry x="63.200000000000045" y="190" width="120" height="60" as="geometry" />
        </mxCell>
        <mxCell id="WhgtrhslCeg2YoSa1LSP-51" value="CMDB" style="shape=process;whiteSpace=wrap;html=1;backgroundOutline=1;" vertex="1" parent="1">
          <mxGeometry x="73.20000000000005" y="200" width="120" height="60" as="geometry" />
        </mxCell>
        <mxCell id="WhgtrhslCeg2YoSa1LSP-52" value="CMDB" style="shape=process;whiteSpace=wrap;html=1;backgroundOutline=1;" vertex="1" parent="1">
          <mxGeometry x="83.20000000000005" y="210" width="120" height="60" as="geometry" />
        </mxCell>
        <mxCell id="WhgtrhslCeg2YoSa1LSP-53" value="" style="shape=flexArrow;endArrow=classic;html=1;rounded=0;entryX=0.5;entryY=0;entryDx=0;entryDy=0;" edge="1" parent="1" source="WhgtrhslCeg2YoSa1LSP-52" target="WhgtrhslCeg2YoSa1LSP-15">
          <mxGeometry width="50" height="50" relative="1" as="geometry">
            <mxPoint x="-26.799999999999955" y="290" as="sourcePoint" />
            <mxPoint x="23.200000000000045" y="240" as="targetPoint" />
          </mxGeometry>
        </mxCell>
        <mxCell id="WhgtrhslCeg2YoSa1LSP-68" value="API" style="rounded=1;whiteSpace=wrap;html=1;" vertex="1" parent="1">
          <mxGeometry x="760" y="410" width="90" height="45" as="geometry" />
        </mxCell>
        <mxCell id="WhgtrhslCeg2YoSa1LSP-95" value="" style="edgeStyle=orthogonalEdgeStyle;rounded=0;orthogonalLoop=1;jettySize=auto;html=1;" edge="1" parent="1" source="WhgtrhslCeg2YoSa1LSP-69" target="WhgtrhslCeg2YoSa1LSP-94">
          <mxGeometry relative="1" as="geometry" />
        </mxCell>
        <mxCell id="WhgtrhslCeg2YoSa1LSP-69" value="API" style="rounded=1;whiteSpace=wrap;html=1;" vertex="1" parent="1">
          <mxGeometry x="770" y="420" width="90" height="45" as="geometry" />
        </mxCell>
        <mxCell id="WhgtrhslCeg2YoSa1LSP-96" value="" style="edgeStyle=orthogonalEdgeStyle;rounded=0;orthogonalLoop=1;jettySize=auto;html=1;" edge="1" parent="1" source="WhgtrhslCeg2YoSa1LSP-71" target="WhgtrhslCeg2YoSa1LSP-87">
          <mxGeometry relative="1" as="geometry">
            <Array as="points">
              <mxPoint x="815" y="490" />
              <mxPoint x="815" y="490" />
            </Array>
          </mxGeometry>
        </mxCell>
        <mxCell id="WhgtrhslCeg2YoSa1LSP-71" value="consumers" style="rounded=1;whiteSpace=wrap;html=1;" vertex="1" parent="1">
          <mxGeometry x="780" y="430" width="90" height="45" as="geometry" />
        </mxCell>
        <mxCell id="WhgtrhslCeg2YoSa1LSP-72" value="" style="shape=datastore;whiteSpace=wrap;html=1;" vertex="1" parent="1">
          <mxGeometry x="695" y="635" width="60" height="60" as="geometry" />
        </mxCell>
        <mxCell id="WhgtrhslCeg2YoSa1LSP-73" value="" style="shape=datastore;whiteSpace=wrap;html=1;" vertex="1" parent="1">
          <mxGeometry x="785" y="635" width="60" height="60" as="geometry" />
        </mxCell>
        <mxCell id="WhgtrhslCeg2YoSa1LSP-74" value="" style="shape=datastore;whiteSpace=wrap;html=1;" vertex="1" parent="1">
          <mxGeometry x="875" y="635" width="60" height="60" as="geometry" />
        </mxCell>
        <mxCell id="WhgtrhslCeg2YoSa1LSP-87" value="proxy" style="rounded=1;whiteSpace=wrap;html=1;" vertex="1" parent="1">
          <mxGeometry x="740" y="520" width="150" height="40" as="geometry" />
        </mxCell>
        <mxCell id="WhgtrhslCeg2YoSa1LSP-90" value="" style="endArrow=none;html=1;rounded=0;entryX=0.5;entryY=1;entryDx=0;entryDy=0;exitX=0.5;exitY=0;exitDx=0;exitDy=0;" edge="1" parent="1" source="WhgtrhslCeg2YoSa1LSP-72" target="WhgtrhslCeg2YoSa1LSP-87">
          <mxGeometry width="50" height="50" relative="1" as="geometry">
            <mxPoint x="755" y="617.5" as="sourcePoint" />
            <mxPoint x="805" y="567.5" as="targetPoint" />
          </mxGeometry>
        </mxCell>
        <mxCell id="WhgtrhslCeg2YoSa1LSP-91" value="" style="endArrow=none;html=1;rounded=0;exitX=0.5;exitY=0;exitDx=0;exitDy=0;entryX=0.5;entryY=1;entryDx=0;entryDy=0;" edge="1" parent="1" source="WhgtrhslCeg2YoSa1LSP-73" target="WhgtrhslCeg2YoSa1LSP-87">
          <mxGeometry width="50" height="50" relative="1" as="geometry">
            <mxPoint x="735" y="645" as="sourcePoint" />
            <mxPoint x="815" y="567.5" as="targetPoint" />
          </mxGeometry>
        </mxCell>
        <mxCell id="WhgtrhslCeg2YoSa1LSP-92" value="" style="endArrow=none;html=1;rounded=0;exitX=0.5;exitY=0;exitDx=0;exitDy=0;entryX=0.5;entryY=1;entryDx=0;entryDy=0;" edge="1" parent="1" source="WhgtrhslCeg2YoSa1LSP-74" target="WhgtrhslCeg2YoSa1LSP-87">
          <mxGeometry width="50" height="50" relative="1" as="geometry">
            <mxPoint x="825" y="645" as="sourcePoint" />
            <mxPoint x="825" y="570" as="targetPoint" />
          </mxGeometry>
        </mxCell>
        <mxCell id="WhgtrhslCeg2YoSa1LSP-93" value="influxDB cluster" style="text;html=1;strokeColor=none;fillColor=none;align=center;verticalAlign=middle;whiteSpace=wrap;rounded=0;" vertex="1" parent="1">
          <mxGeometry x="755" y="695" width="120" height="30" as="geometry" />
        </mxCell>
        <mxCell id="WhgtrhslCeg2YoSa1LSP-109" style="edgeStyle=orthogonalEdgeStyle;rounded=0;orthogonalLoop=1;jettySize=auto;html=1;exitX=0.55;exitY=0.95;exitDx=0;exitDy=0;exitPerimeter=0;entryX=1.011;entryY=0.385;entryDx=0;entryDy=0;entryPerimeter=0;" edge="1" parent="1" source="WhgtrhslCeg2YoSa1LSP-94" target="WhgtrhslCeg2YoSa1LSP-98">
          <mxGeometry relative="1" as="geometry">
            <Array as="points">
              <mxPoint x="646" y="524" />
            </Array>
          </mxGeometry>
        </mxCell>
        <mxCell id="WhgtrhslCeg2YoSa1LSP-94" value="alert_systems" style="ellipse;shape=cloud;whiteSpace=wrap;html=1;rounded=1;" vertex="1" parent="1">
          <mxGeometry x="580" y="402.5" width="120" height="80" as="geometry" />
        </mxCell>
        <mxCell id="WhgtrhslCeg2YoSa1LSP-98" value="" style="rounded=0;whiteSpace=wrap;html=1;" vertex="1" parent="1">
          <mxGeometry x="270" y="478.75" width="270" height="117.5" as="geometry" />
        </mxCell>
        <mxCell id="WhgtrhslCeg2YoSa1LSP-100" value="" style="shape=actor;whiteSpace=wrap;html=1;" vertex="1" parent="1">
          <mxGeometry x="143.2" y="475" width="40" height="60" as="geometry" />
        </mxCell>
        <mxCell id="WhgtrhslCeg2YoSa1LSP-101" value="" style="shape=actor;whiteSpace=wrap;html=1;" vertex="1" parent="1">
          <mxGeometry x="113.2" y="505" width="40" height="60" as="geometry" />
        </mxCell>
        <mxCell id="WhgtrhslCeg2YoSa1LSP-102" value="Monitor Portal" style="text;html=1;strokeColor=none;fillColor=none;align=center;verticalAlign=middle;whiteSpace=wrap;rounded=0;" vertex="1" parent="1">
          <mxGeometry x="352" y="475" width="106" height="30" as="geometry" />
        </mxCell>
        <mxCell id="WhgtrhslCeg2YoSa1LSP-103" value="" style="rounded=1;whiteSpace=wrap;html=1;" vertex="1" parent="1">
          <mxGeometry x="290" y="522.5" width="80" height="30" as="geometry" />
        </mxCell>
        <mxCell id="WhgtrhslCeg2YoSa1LSP-104" value="" style="rounded=1;whiteSpace=wrap;html=1;" vertex="1" parent="1">
          <mxGeometry x="300" y="532.5" width="80" height="30" as="geometry" />
        </mxCell>
        <mxCell id="WhgtrhslCeg2YoSa1LSP-105" value="APIs" style="rounded=1;whiteSpace=wrap;html=1;" vertex="1" parent="1">
          <mxGeometry x="310" y="542.5" width="80" height="30" as="geometry" />
        </mxCell>
        <mxCell id="WhgtrhslCeg2YoSa1LSP-106" value="" style="ellipse;whiteSpace=wrap;html=1;" vertex="1" parent="1">
          <mxGeometry x="404" y="512.5" width="96" height="40" as="geometry" />
        </mxCell>
        <mxCell id="WhgtrhslCeg2YoSa1LSP-107" value="" style="ellipse;whiteSpace=wrap;html=1;" vertex="1" parent="1">
          <mxGeometry x="414" y="522.5" width="96" height="40" as="geometry" />
        </mxCell>
        <mxCell id="WhgtrhslCeg2YoSa1LSP-108" value="dashboards" style="ellipse;whiteSpace=wrap;html=1;" vertex="1" parent="1">
          <mxGeometry x="424" y="532.5" width="96" height="40" as="geometry" />
        </mxCell>
        <mxCell id="WhgtrhslCeg2YoSa1LSP-111" value="" style="endArrow=classic;html=1;rounded=0;entryX=1;entryY=0.606;entryDx=0;entryDy=0;entryPerimeter=0;exitX=0;exitY=0.75;exitDx=0;exitDy=0;" edge="1" parent="1" source="WhgtrhslCeg2YoSa1LSP-87" target="WhgtrhslCeg2YoSa1LSP-98">
          <mxGeometry width="50" height="50" relative="1" as="geometry">
            <mxPoint x="640" y="590" as="sourcePoint" />
            <mxPoint x="690" y="540" as="targetPoint" />
          </mxGeometry>
        </mxCell>
        <mxCell id="WhgtrhslCeg2YoSa1LSP-113" value="" style="shape=flexArrow;endArrow=classic;html=1;rounded=0;entryX=-0.015;entryY=0.351;entryDx=0;entryDy=0;entryPerimeter=0;" edge="1" parent="1" target="WhgtrhslCeg2YoSa1LSP-98">
          <mxGeometry width="50" height="50" relative="1" as="geometry">
            <mxPoint x="190" y="520" as="sourcePoint" />
            <mxPoint x="240" y="490" as="targetPoint" />
          </mxGeometry>
        </mxCell>
      </root>
    </mxGraphModel>
  </diagram>
</mxfile>
